<svg width="160" height="160" viewBox="0 0 160 160" fill="none" xmlns="http://www.w3.org/2000/svg">
<g clip-path="url(#clip0_8192_2267)">
<rect width="160" height="160" rx="8" fill="url(#paint0_linear_8192_2267)"/>
<path d="M61.7165 86.8767L52.2595 110.708L116.274 160H152C156.418 160 160 156.418 160 152V81.928L119.896 45.7144H52.2595L45.7144 65.2124L61.7165 86.8767Z" fill="#17875F"/>
<path d="M125.714 56.5855H106.192V134.286C103.009 134.286 99.8729 133.672 96.7834 132.445C93.6927 131.313 92.1483 129.992 92.1483 128.482V111.641C85.5944 115.792 78.4785 117.868 70.8006 117.868C63.1227 117.868 56.8507 115.886 51.9816 111.923C47.2069 107.866 44.8191 102.63 44.8191 96.2141C44.8191 91.3077 46.5044 86.9201 49.8748 83.0514C45.1 81.2591 41.308 78.6166 38.499 75.1252C35.6902 71.5406 34.2856 67.2939 34.2856 62.3881C34.2856 57.4817 36.252 52.9999 40.1845 48.9425C44.2105 44.8857 49.6877 42.8569 56.6168 42.8569C61.6718 42.8569 65.5573 43.9889 68.2731 46.2536C71.0819 48.518 72.4866 51.3014 72.4866 54.604C72.4866 61.3027 68.1789 66.0205 59.5659 68.7567C58.1612 67.6247 57.1308 66.0205 56.4758 63.9452C60.3139 61.3971 62.2338 58.7086 62.2338 55.8776C62.2338 54.2734 61.7654 52.9999 60.8291 52.0563C59.8928 51.0182 58.3952 50.4993 56.3355 50.4993C54.2752 50.4993 52.2623 51.632 50.2964 53.8963C48.33 56.1608 47.347 59.1325 47.347 62.8126C47.347 66.3984 48.33 69.417 50.2964 71.8708C52.3559 74.229 54.9308 75.8804 58.0203 76.8243C62.1397 74.7484 66.7748 73.192 71.9246 72.1532C75.482 75.5508 77.7293 79.0883 78.6656 82.7684C72.8603 83.9009 67.945 85.6932 63.9198 88.147C59.987 90.5058 58.0203 93.242 58.0203 96.3556C58.0203 99.3747 59.0501 101.827 61.1104 103.715C63.2636 105.602 66.3064 106.546 70.2392 106.546C74.265 106.546 78.2445 105.414 82.1768 103.149C86.109 100.884 89.433 97.912 92.1483 94.2319V56.5855H82.4575C79.0873 52.6223 77.4018 48.4237 77.4018 43.9889H121.36C124.263 47.7631 125.714 51.9621 125.714 56.5855Z" fill="white"/>
</g>
<defs>
<linearGradient id="paint0_linear_8192_2267" x1="150" y1="136" x2="92.88" y2="-2.1748" gradientUnits="userSpaceOnUse">
<stop stop-color="#138C61"/>
<stop offset="1" stop-color="#4DBA93" stop-opacity="0.99"/>
</linearGradient>
<clipPath id="clip0_8192_2267">
<rect width="160" height="160" fill="white"/>
</clipPath>
</defs>
</svg>
