<svg width="165" height="68" viewBox="0 0 165 68" fill="none" xmlns="http://www.w3.org/2000/svg">
<path d="M164.385 49.6443H0V45.6992H164.385V49.6443Z" fill="url(#paint0_linear_163_27)"/>
<path d="M149.581 67.7267V51.8477H156.455C157.876 51.8477 159.101 52.0821 160.13 52.5509C161.158 53.0046 161.952 53.6624 162.512 54.5244C163.071 55.3864 163.351 56.4148 163.351 57.6095C163.351 58.7891 163.071 59.8099 162.512 60.6719C161.952 61.5188 161.158 62.169 160.13 62.6227C159.101 63.0764 157.876 63.3033 156.455 63.3033H151.623L153.256 61.6927V67.7267H149.581ZM159.676 67.7267L155.706 61.9649H159.631L163.646 67.7267H159.676ZM153.256 62.101L151.623 60.377H156.25C157.385 60.377 158.232 60.135 158.791 59.6511C159.351 59.152 159.631 58.4715 159.631 57.6095C159.631 56.7324 159.351 56.0518 158.791 55.5679C158.232 55.084 157.385 54.842 156.25 54.842H151.623L153.256 53.0953V62.101Z" fill="url(#paint1_linear_163_27)"/>
<path d="M141.799 67.7267V51.8477H145.474V67.7267H141.799Z" fill="url(#paint2_linear_163_27)"/>
<path d="M122.002 67.7267L129.08 51.8477H132.709L139.81 67.7267H135.953L130.146 53.7078H131.598L125.768 67.7267H122.002ZM125.541 64.3241L126.516 61.5339H134.683L135.681 64.3241H125.541Z" fill="url(#paint3_linear_163_27)"/>
<path d="M105.428 67.7267V51.8477H108.468L117.836 63.2806H116.362V51.8477H119.992V67.7267H116.974L107.583 56.2938H109.057V67.7267H105.428Z" fill="url(#paint4_linear_163_27)"/>
<path d="M93.6593 68.0016C92.4041 68.0016 91.2396 67.7974 90.1658 67.3891C89.1072 66.9808 88.1846 66.4061 87.3982 65.6651C86.6269 64.9241 86.022 64.0545 85.5834 63.0564C85.16 62.0583 84.9482 60.9695 84.9482 59.7899C84.9482 58.6103 85.16 57.5214 85.5834 56.5233C86.022 55.5252 86.6345 54.6556 87.4209 53.9146C88.2073 53.1736 89.1299 52.5989 90.1885 52.1906C91.2471 51.7823 92.3965 51.5781 93.6366 51.5781C94.8919 51.5781 96.0413 51.7823 97.0848 52.1906C98.1434 52.5989 99.0584 53.1736 99.8297 53.9146C100.616 54.6556 101.229 55.5252 101.667 56.5233C102.106 57.5063 102.325 58.5952 102.325 59.7899C102.325 60.9695 102.106 62.0659 101.667 63.0791C101.229 64.0772 100.616 64.9468 99.8297 65.6878C99.0584 66.4137 98.1434 66.9808 97.0848 67.3891C96.0413 67.7974 94.8994 68.0016 93.6593 68.0016ZM93.6366 64.8712C94.3474 64.8712 94.9977 64.7502 95.5876 64.5082C96.1925 64.2662 96.7218 63.9184 97.1755 63.4647C97.6292 63.011 97.9771 62.4742 98.219 61.8541C98.4761 61.2341 98.6047 60.546 98.6047 59.7899C98.6047 59.0337 98.4761 58.3456 98.219 57.7256C97.9771 57.1055 97.6292 56.5687 97.1755 56.115C96.7369 55.6613 96.2152 55.3135 95.6102 55.0715C95.0053 54.8296 94.3474 54.7086 93.6366 54.7086C92.9258 54.7086 92.268 54.8296 91.663 55.0715C91.0732 55.3135 90.5515 55.6613 90.0978 56.115C89.6441 56.5687 89.2887 57.1055 89.0316 57.7256C88.7896 58.3456 88.6686 59.0337 88.6686 59.7899C88.6686 60.5309 88.7896 61.219 89.0316 61.8541C89.2887 62.4742 89.6365 63.011 90.0751 63.4647C90.5288 63.9184 91.0581 64.2662 91.663 64.5082C92.268 64.7502 92.9258 64.8712 93.6366 64.8712Z" fill="url(#paint5_linear_163_27)"/>
<path d="M73.7678 58.2446H81.4127V61.1029H73.7678V58.2446ZM74.04 64.7777H82.683V67.7267H70.3877V51.8477H82.3881V54.7966H74.04V64.7777Z" fill="url(#paint6_linear_163_27)"/>
<path d="M51.3037 67.7267V51.8477H58.5176C60.2416 51.8477 61.7615 52.1804 63.0773 52.8458C64.393 53.4961 65.4214 54.411 66.1625 55.5906C66.9035 56.7702 67.274 58.169 67.274 59.7872C67.274 61.3902 66.9035 62.7891 66.1625 63.9838C65.4214 65.1634 64.393 66.0859 63.0773 66.7513C61.7615 67.4016 60.2416 67.7267 58.5176 67.7267H51.3037ZM54.9787 64.7097H58.3361C59.3947 64.7097 60.3097 64.5131 61.081 64.1199C61.8674 63.7116 62.4723 63.1369 62.8958 62.3959C63.3344 61.6549 63.5537 60.7853 63.5537 59.7872C63.5537 58.774 63.3344 57.9044 62.8958 57.1785C62.4723 56.4375 61.8674 55.8704 61.081 55.4772C60.3097 55.0688 59.3947 54.8647 58.3361 54.8647H54.9787V64.7097Z" fill="url(#paint7_linear_163_27)"/>
<path d="M31.5098 67.7267L38.5875 51.8477H42.2171L49.3176 67.7267H45.4611L39.6537 53.7078H41.1056L35.2755 67.7267H31.5098ZM35.0486 64.3241L36.0241 61.5339H44.1907L45.1889 64.3241H35.0486Z" fill="url(#paint8_linear_163_27)"/>
<path d="M16.5732 67.7267V51.8477H23.4468C24.8684 51.8477 26.0934 52.0821 27.1218 52.5509C28.1502 53.0046 28.9442 53.6624 29.5037 54.5244C30.0633 55.3864 30.3431 56.4148 30.3431 57.6095C30.3431 58.7891 30.0633 59.8099 29.5037 60.6719C28.9442 61.5188 28.1502 62.169 27.1218 62.6227C26.0934 63.0764 24.8684 63.3033 23.4468 63.3033H18.6149L20.2482 61.6927V67.7267H16.5732ZM26.6681 67.7267L22.6982 61.9649H26.6227L30.638 67.7267H26.6681ZM20.2482 62.101L18.6149 60.377H23.2427C24.3769 60.377 25.2238 60.135 25.7834 59.6511C26.343 59.152 26.6227 58.4715 26.6227 57.6095C26.6227 56.7324 26.343 56.0518 25.7834 55.5679C25.2238 55.084 24.3769 54.842 23.2427 54.842H18.6149L20.2482 53.0953V62.101Z" fill="url(#paint9_linear_163_27)"/>
<path d="M5.50139 67.7267V54.842H0.419922V51.8477H14.2578V54.842H9.17637V67.7267H5.50139Z" fill="url(#paint10_linear_163_27)"/>
<path d="M163.572 14.7626C162.533 14.4646 161.539 14.5317 160.589 13.8911C159.699 13.2878 159.12 12.327 158.504 11.4406C157.45 9.91371 155.892 8.87094 154.223 8.12611C154.512 7.9697 154.854 7.83563 155.269 7.7239C157.725 7.0759 161.553 6.51728 162.629 5.45962C163.713 4.4094 164.024 2.86015 164.024 2.86015C164.024 2.86015 163.698 3.88802 162.303 4.8712C160.908 5.84693 156.174 5.91396 153.318 6.197C152.309 6.29383 151.596 6.56196 151.144 7.00141C151.025 6.96666 150.906 6.9319 150.788 6.89714C150.988 6.07783 151.693 5.5192 152.999 5.16913C155.603 4.47644 159.676 3.88057 160.819 2.76333C161.969 1.64608 162.295 0 162.295 0C162.295 0 161.947 1.0949 160.47 2.13022C158.986 3.17298 153.956 3.24747 150.921 3.5454C148.747 3.75395 147.872 4.69989 147.953 6.413C147.434 6.39066 146.907 6.40555 146.373 6.48003C145.156 6.6439 143.91 6.89714 142.7 6.67369C140.541 6.28638 138.894 4.50623 136.824 3.76885C135.325 3.22512 133.664 3.26236 132.091 3.53795C129.36 4.00719 126.838 5.26596 124.307 6.33852C117.704 9.13164 117.444 8.61025 110.93 8.87094C104.52 9.12419 102.227 7.70156 97.2782 10.0627C94.2659 10.8522 90.4448 12.8111 87.8628 16.7215C84.806 21.3618 84.0863 22.2183 82.2017 22.0843C81.0665 22.0098 80.4952 21.2426 80.4359 20.4307C81.1259 20.468 81.7862 20.2594 82.7211 19.2092C84.1308 17.6153 83.9379 15.1499 83.9379 15.1499C83.6782 16.6991 80.3394 15.7085 79.1152 17.1982C78.2174 18.3005 78.5513 19.671 79.4194 20.1998C79.4046 20.4605 79.4194 20.7212 79.4713 20.9894C79.5826 21.548 79.8497 22.0917 80.2949 22.5386C80.7549 22.9855 81.3411 23.276 82.0162 23.3877C82.6988 23.5069 83.3963 23.5143 84.1456 23.2313C84.5018 23.0972 84.8282 22.9036 85.1473 22.6727C86.1712 21.9204 87.3286 20.5201 89.0425 18.3899C89.8661 17.362 90.7861 16.5204 91.7506 15.85C90.8751 18.5761 90.4819 20.386 90.9048 24.7656C91.3871 29.7337 91.7729 30.0837 89.8216 32.0873C87.8628 34.0984 87.9518 32.8322 86.6534 37.2341C85.3476 41.6361 85.5628 44.1685 85.6073 44.7793C85.6518 45.39 86.3047 45.7848 89.2132 45.7848C92.1216 45.7848 91.3426 44.7793 91.209 44.1685C91.0829 43.5577 88.998 43.0811 88.8199 42.8576C88.6493 42.6416 89.0796 40.4593 89.7771 39.2824C90.4745 38.1056 92.1661 35.4018 94.6888 34.1431C94.852 34.0587 95.0152 33.9767 95.1785 33.8973C94.7185 34.7687 94.4068 35.886 95.2081 37.4501C96.3359 39.6772 97.4192 41.9862 98.1166 43.3418C98.814 44.6899 98.8956 45.4347 99.7266 45.4347C100.55 45.4347 103.459 45.5613 103.763 45.4347C104.067 45.3007 104.112 44.0344 103.288 43.7738C102.457 43.5131 101.24 44.0344 100.981 42.2469C100.721 40.4593 100.595 38.195 100.936 37.6289C101.908 36.0498 102.272 36.1541 103.778 34.2846L128.804 17.7642L126.051 13.5559L139.985 15.3137L135.971 28.7058L133.218 24.4975L121.488 32.2438C121.666 35.2901 122.831 40.5263 123.002 41.8148C123.217 43.4237 123.439 45.5167 123.87 45.5167C124.307 45.5167 127.127 45.6507 127.913 45.6507C128.692 45.6507 129.65 45.7848 129.65 45.3007C129.65 44.824 129.167 44.1238 128.388 44.0344C127.609 43.9525 127.001 43.7738 126.608 43.2524C126.214 42.731 126.088 41.2488 126.348 39.5431C126.57 38.0832 128.774 34.2846 130.08 32.132C130.703 33.51 131.564 35.3944 132.165 36.6234C133.211 38.761 134.034 41.8595 134.339 42.9023C134.643 43.9525 134.814 45.5614 135.333 45.5614C135.86 45.5614 139.851 45.6954 140.415 45.6954C140.979 45.6954 141.024 44.9506 140.675 44.3398C140.334 43.7291 139.896 43.8184 138.983 43.7291C138.071 43.6471 137.945 42.7757 137.596 41.6361C137.247 40.5039 137.032 36.4074 138.464 34.1803C139.688 32.2884 141.128 29.6592 142.367 27.2757C144.541 24.9593 146.707 22.4343 147.931 21.1607C150.454 18.5463 149.845 19.4178 153.407 19.4178C156.968 19.4178 159.483 19.3358 160.96 19.3358C162.236 19.3358 163.364 17.4291 163.787 16.431C164.032 15.8575 164.351 14.986 163.572 14.7626Z" fill="#57CA22"/>
<path d="M103.778 34.2879L125.636 17.7973L122.78 13.4922L126.386 14.0732L128.804 17.7675L103.778 34.2879Z" fill="#50FF00"/>
<path d="M72.7487 33.7143C72.0398 32.2109 71.0119 30.3339 71.0473 26.7222C71.0827 23.7333 70.6574 21.2781 70.108 19.2498C71.4372 19.7925 71.9689 18.3425 70.8523 16.8569C69.789 15.4514 68.1408 14.4284 67.2015 13.8412C67.042 13.6989 66.8913 13.5655 66.723 13.4498C65.2609 12.409 63.462 12.0888 61.5745 11.9465L39.1731 26.7311L42.4607 31.7483L25.8191 29.6489L30.6131 13.6544L33.9006 18.6805L48.0522 9.34001C46.0584 8.69062 44.1532 7.94338 42.6379 7.08939C39.2617 5.17681 38.3667 1.68079 32.9791 1.46729C27.5914 1.2538 27.2724 4.43846 21.1403 4.75871C18.4465 4.89215 16.6565 4.80319 15.3628 4.71423C15.2919 3.67343 14.9286 1.95656 13.9715 2.62374C13.0854 3.24644 12.8639 3.96699 12.7221 4.5719C11.4904 4.58969 10.4713 4.80319 9.49656 5.43479C7.95469 6.42221 6.44827 7.85442 6.33307 8.57498C6.20901 9.28663 6.33307 9.72252 5.53555 10.2474C4.74689 10.7633 2.68221 11.9554 1.9733 12.3112C1.25553 12.667 0.706131 12.8716 1.14034 13.5833C1.57454 14.3038 2.4075 15.1311 2.68221 15.5759C2.96577 16.0118 3.27591 16.5633 4.23294 16.2876C5.1811 16.0118 7.16603 15.2912 7.16603 15.2912C7.16603 15.2912 5.59758 16.3676 4.86209 16.59C4.13546 16.8035 3.89621 16.7412 3.89621 16.7412C3.89621 16.7412 4.13546 17.3195 5.99634 17.0615C7.68885 16.8302 9.79785 15.7983 14.1222 16.679C15.4425 16.9903 17.0375 17.3017 18.4554 18.636C19.8998 20.8955 21.4062 24.3204 21.929 27.7541C22.6025 32.1664 22.248 35.6624 21.61 38.9272C20.9808 42.1919 20.9011 42.948 19.1554 43.3839C17.4186 43.8198 17.5338 44.7361 17.5338 45.6079C17.5338 46.4796 19.9884 45.9637 21.1758 45.8836C22.3632 45.8036 23.0012 45.7235 23.9494 44.0155C24.8975 42.3075 26.723 39.3631 27.8306 38.5713C28.5395 38.0643 29.2307 37.5661 29.9662 35.867C30.0903 36.4364 30.2232 37.0324 30.365 37.6907C31.1182 41.1511 31.4726 43.0637 30.2055 43.464C28.9383 43.8554 28.1053 43.2238 27.5559 44.3002C26.9977 45.3677 27.3167 45.9281 29.1421 45.848C30.9587 45.768 32.2702 46.1238 33.2981 45.3677C34.326 44.6115 35.0792 41.5959 37.9768 37.6195C39.4124 35.6358 40.1479 34.2836 40.5821 33.1805C43.657 32.3443 46.6344 30.9922 50.108 29.729C50.2055 31.2324 51.0473 33.4652 52.8639 36.1428C55.2476 39.6477 55.0437 41.4358 54.4146 42.5833C53.7766 43.7398 53.0677 43.6241 52.1107 43.5441C51.1625 43.464 50.808 44.3358 50.684 44.9763C50.5688 45.6079 51.2422 45.8036 53.1474 45.7235C55.0438 45.6523 55.7172 46.1683 57.3388 43.6953C58.9693 41.2312 59.8377 40.2437 60.2719 39.2029C60.6618 38.2956 60.1213 35.7336 61.7961 33.6164C64.1 36.8456 67.3876 38.429 68.2737 40.2793C69.2307 42.272 68.9472 43.3394 67.361 43.6241C65.7837 43.8999 65.1457 44.3358 65.2697 45.0118C65.3849 45.6879 66.0938 45.6523 69.1067 45.6523C72.1195 45.6523 72.4385 44.4514 72.9525 41.8272C73.4664 39.2029 73.4664 35.2266 72.7487 33.7143Z" fill="#D90002"/>
<path d="M61.5743 11.9453L42.2034 26.9613L45.1542 31.6315L41.9287 30.9377L39.1729 26.73L61.5743 11.9453Z" fill="#FF0000"/>
<defs>
<linearGradient id="paint0_linear_163_27" x1="164.385" y1="47.6718" x2="0" y2="47.6718" gradientUnits="userSpaceOnUse">
<stop stop-color="#C00003"/>
<stop offset="0.423077" stop-color="#A81303"/>
<stop offset="1" stop-color="#57CA22"/>
</linearGradient>
<linearGradient id="paint1_linear_163_27" x1="0.328338" y1="59.5077" x2="164.384" y2="59.5077" gradientUnits="userSpaceOnUse">
<stop stop-color="#1C8100"/>
<stop offset="0.442308" stop-color="#4D5A01"/>
<stop offset="0.559182" stop-color="#952102"/>
<stop offset="1" stop-color="#C00003"/>
</linearGradient>
<linearGradient id="paint2_linear_163_27" x1="0.329915" y1="59.5077" x2="164.386" y2="59.5077" gradientUnits="userSpaceOnUse">
<stop stop-color="#1C8100"/>
<stop offset="0.442308" stop-color="#4D5A01"/>
<stop offset="0.559182" stop-color="#952102"/>
<stop offset="1" stop-color="#C00003"/>
</linearGradient>
<linearGradient id="paint3_linear_163_27" x1="0.328619" y1="59.5077" x2="164.385" y2="59.5077" gradientUnits="userSpaceOnUse">
<stop stop-color="#1C8100"/>
<stop offset="0.442308" stop-color="#4D5A01"/>
<stop offset="0.559182" stop-color="#952102"/>
<stop offset="1" stop-color="#C00003"/>
</linearGradient>
<linearGradient id="paint4_linear_163_27" x1="0.328525" y1="59.5077" x2="164.385" y2="59.5077" gradientUnits="userSpaceOnUse">
<stop stop-color="#1C8100"/>
<stop offset="0.442308" stop-color="#4D5A01"/>
<stop offset="0.559182" stop-color="#952102"/>
<stop offset="1" stop-color="#C00003"/>
</linearGradient>
<linearGradient id="paint5_linear_163_27" x1="0.328026" y1="59.5104" x2="164.384" y2="59.5104" gradientUnits="userSpaceOnUse">
<stop stop-color="#1C8100"/>
<stop offset="0.442308" stop-color="#4D5A01"/>
<stop offset="0.559182" stop-color="#952102"/>
<stop offset="1" stop-color="#C00003"/>
</linearGradient>
<linearGradient id="paint6_linear_163_27" x1="0.329008" y1="59.5077" x2="164.385" y2="59.5077" gradientUnits="userSpaceOnUse">
<stop stop-color="#57CA22"/>
<stop offset="0.442308" stop-color="#57CA22"/>
<stop offset="0.559182" stop-color="#952102"/>
<stop offset="1" stop-color="#C00003"/>
</linearGradient>
<linearGradient id="paint7_linear_163_27" x1="0.327092" y1="59.5077" x2="164.383" y2="59.5077" gradientUnits="userSpaceOnUse">
<stop stop-color="#57CA22"/>
<stop offset="0.442308" stop-color="#57CA22"/>
<stop offset="0.559182" stop-color="#952102"/>
<stop offset="1" stop-color="#C00003"/>
</linearGradient>
<linearGradient id="paint8_linear_163_27" x1="0.328732" y1="59.5077" x2="164.385" y2="59.5077" gradientUnits="userSpaceOnUse">
<stop stop-color="#57CA22"/>
<stop offset="0.442308" stop-color="#57CA22"/>
<stop offset="0.559182" stop-color="#952102"/>
<stop offset="1" stop-color="#C00003"/>
</linearGradient>
<linearGradient id="paint9_linear_163_27" x1="0.326991" y1="59.5077" x2="164.383" y2="59.5077" gradientUnits="userSpaceOnUse">
<stop stop-color="#57CA22"/>
<stop offset="0.442308" stop-color="#57CA22"/>
<stop offset="0.559182" stop-color="#952102"/>
<stop offset="1" stop-color="#C00003"/>
</linearGradient>
<linearGradient id="paint10_linear_163_27" x1="0.329181" y1="59.5077" x2="164.385" y2="59.5077" gradientUnits="userSpaceOnUse">
<stop stop-color="#57CA22"/>
<stop offset="0.442308" stop-color="#57CA22"/>
<stop offset="0.559182" stop-color="#952102"/>
<stop offset="1" stop-color="#C00003"/>
</linearGradient>
</defs>
</svg>
